<mxfile host="app.diagrams.net" modified="2022-08-11T17:57:43.610Z" agent="5.0 (Windows NT 10.0; Win64; x64) AppleWebKit/537.36 (KHTML, like Gecko) Chrome/104.0.0.0 Safari/537.36" etag="CHdQk0R1eSkG7H79GOfI" version="20.2.3" type="github">
  <diagram id="C5RBs43oDa-KdzZeNtuy" name="Page-1">
    <mxGraphModel dx="1085" dy="1722" grid="1" gridSize="10" guides="1" tooltips="1" connect="1" arrows="1" fold="1" page="1" pageScale="1" pageWidth="827" pageHeight="1169" math="0" shadow="0">
      <root>
        <mxCell id="WIyWlLk6GJQsqaUBKTNV-0" />
        <mxCell id="WIyWlLk6GJQsqaUBKTNV-1" parent="WIyWlLk6GJQsqaUBKTNV-0" />
        <mxCell id="dCPYGXt_jROoWqE-Jf7P-8" style="edgeStyle=orthogonalEdgeStyle;rounded=0;orthogonalLoop=1;jettySize=auto;html=1;" edge="1" parent="WIyWlLk6GJQsqaUBKTNV-1" source="dCPYGXt_jROoWqE-Jf7P-0" target="dCPYGXt_jROoWqE-Jf7P-7">
          <mxGeometry relative="1" as="geometry" />
        </mxCell>
        <mxCell id="dCPYGXt_jROoWqE-Jf7P-0" value="INICIO" style="rounded=1;whiteSpace=wrap;html=1;arcSize=50;" vertex="1" parent="WIyWlLk6GJQsqaUBKTNV-1">
          <mxGeometry x="340" y="-40" width="120" height="50" as="geometry" />
        </mxCell>
        <mxCell id="dCPYGXt_jROoWqE-Jf7P-1" value="FIN" style="rounded=1;whiteSpace=wrap;html=1;arcSize=50;" vertex="1" parent="WIyWlLk6GJQsqaUBKTNV-1">
          <mxGeometry x="360" y="1620" width="120" height="50" as="geometry" />
        </mxCell>
        <mxCell id="dCPYGXt_jROoWqE-Jf7P-14" style="edgeStyle=orthogonalEdgeStyle;rounded=0;orthogonalLoop=1;jettySize=auto;html=1;" edge="1" parent="WIyWlLk6GJQsqaUBKTNV-1" source="dCPYGXt_jROoWqE-Jf7P-3" target="dCPYGXt_jROoWqE-Jf7P-13">
          <mxGeometry relative="1" as="geometry" />
        </mxCell>
        <mxCell id="dCPYGXt_jROoWqE-Jf7P-3" value="Ingrese el numero" style="shape=document;whiteSpace=wrap;html=1;boundedLbl=1;" vertex="1" parent="WIyWlLk6GJQsqaUBKTNV-1">
          <mxGeometry x="340" y="150" width="120" height="80" as="geometry" />
        </mxCell>
        <mxCell id="dCPYGXt_jROoWqE-Jf7P-9" style="edgeStyle=orthogonalEdgeStyle;rounded=0;orthogonalLoop=1;jettySize=auto;html=1;" edge="1" parent="WIyWlLk6GJQsqaUBKTNV-1" source="dCPYGXt_jROoWqE-Jf7P-7" target="dCPYGXt_jROoWqE-Jf7P-3">
          <mxGeometry relative="1" as="geometry" />
        </mxCell>
        <mxCell id="dCPYGXt_jROoWqE-Jf7P-7" value="&lt;span style=&quot;color: rgb(0, 0, 0); font-family: Helvetica; font-size: 12px; font-style: normal; font-variant-ligatures: normal; font-variant-caps: normal; font-weight: 400; letter-spacing: normal; orphans: 2; text-align: center; text-indent: 0px; text-transform: none; widows: 2; word-spacing: 0px; -webkit-text-stroke-width: 0px; background-color: rgb(248, 249, 250); text-decoration-thickness: initial; text-decoration-style: initial; text-decoration-color: initial; float: none; display: inline !important;&quot;&gt;int nIn:&lt;/span&gt;&lt;br style=&quot;color: rgb(0, 0, 0); font-family: Helvetica; font-size: 12px; font-style: normal; font-variant-ligatures: normal; font-variant-caps: normal; font-weight: 400; letter-spacing: normal; orphans: 2; text-align: center; text-indent: 0px; text-transform: none; widows: 2; word-spacing: 0px; -webkit-text-stroke-width: 0px; background-color: rgb(248, 249, 250); text-decoration-thickness: initial; text-decoration-style: initial; text-decoration-color: initial;&quot;&gt;&lt;span style=&quot;color: rgb(0, 0, 0); font-family: Helvetica; font-size: 12px; font-style: normal; font-variant-ligatures: normal; font-variant-caps: normal; font-weight: 400; letter-spacing: normal; orphans: 2; text-align: center; text-indent: 0px; text-transform: none; widows: 2; word-spacing: 0px; -webkit-text-stroke-width: 0px; background-color: rgb(248, 249, 250); text-decoration-thickness: initial; text-decoration-style: initial; text-decoration-color: initial; float: none; display: inline !important;&quot;&gt;int n;&lt;/span&gt;&lt;br style=&quot;color: rgb(0, 0, 0); font-family: Helvetica; font-size: 12px; font-style: normal; font-variant-ligatures: normal; font-variant-caps: normal; font-weight: 400; letter-spacing: normal; orphans: 2; text-align: center; text-indent: 0px; text-transform: none; widows: 2; word-spacing: 0px; -webkit-text-stroke-width: 0px; background-color: rgb(248, 249, 250); text-decoration-thickness: initial; text-decoration-style: initial; text-decoration-color: initial;&quot;&gt;&lt;span style=&quot;color: rgb(0, 0, 0); font-family: Helvetica; font-size: 12px; font-style: normal; font-variant-ligatures: normal; font-variant-caps: normal; font-weight: 400; letter-spacing: normal; orphans: 2; text-align: center; text-indent: 0px; text-transform: none; widows: 2; word-spacing: 0px; -webkit-text-stroke-width: 0px; background-color: rgb(248, 249, 250); text-decoration-thickness: initial; text-decoration-style: initial; text-decoration-color: initial; float: none; display: inline !important;&quot;&gt;bool primo:&lt;br&gt;int x;&lt;br&gt;&lt;/span&gt;" style="rounded=0;whiteSpace=wrap;html=1;" vertex="1" parent="WIyWlLk6GJQsqaUBKTNV-1">
          <mxGeometry x="340" y="50" width="120" height="70" as="geometry" />
        </mxCell>
        <mxCell id="dCPYGXt_jROoWqE-Jf7P-16" value="F" style="edgeStyle=orthogonalEdgeStyle;rounded=0;orthogonalLoop=1;jettySize=auto;html=1;entryX=0;entryY=0.5;entryDx=0;entryDy=0;" edge="1" parent="WIyWlLk6GJQsqaUBKTNV-1" source="dCPYGXt_jROoWqE-Jf7P-10" target="dCPYGXt_jROoWqE-Jf7P-63">
          <mxGeometry relative="1" as="geometry">
            <Array as="points">
              <mxPoint x="230" y="520" />
              <mxPoint x="230" y="1500" />
            </Array>
          </mxGeometry>
        </mxCell>
        <mxCell id="dCPYGXt_jROoWqE-Jf7P-25" value="V" style="edgeStyle=orthogonalEdgeStyle;rounded=0;orthogonalLoop=1;jettySize=auto;html=1;" edge="1" parent="WIyWlLk6GJQsqaUBKTNV-1" source="dCPYGXt_jROoWqE-Jf7P-10" target="dCPYGXt_jROoWqE-Jf7P-24">
          <mxGeometry relative="1" as="geometry" />
        </mxCell>
        <mxCell id="dCPYGXt_jROoWqE-Jf7P-10" value="nIn &amp;gt; 1" style="rhombus;whiteSpace=wrap;html=1;" vertex="1" parent="WIyWlLk6GJQsqaUBKTNV-1">
          <mxGeometry x="360" y="480" width="80" height="80" as="geometry" />
        </mxCell>
        <mxCell id="dCPYGXt_jROoWqE-Jf7P-67" style="edgeStyle=orthogonalEdgeStyle;rounded=0;orthogonalLoop=1;jettySize=auto;html=1;" edge="1" parent="WIyWlLk6GJQsqaUBKTNV-1" source="dCPYGXt_jROoWqE-Jf7P-13" target="dCPYGXt_jROoWqE-Jf7P-65">
          <mxGeometry relative="1" as="geometry" />
        </mxCell>
        <mxCell id="dCPYGXt_jROoWqE-Jf7P-13" value="nIn" style="shape=parallelogram;perimeter=parallelogramPerimeter;whiteSpace=wrap;html=1;fixedSize=1;" vertex="1" parent="WIyWlLk6GJQsqaUBKTNV-1">
          <mxGeometry x="340" y="260" width="120" height="60" as="geometry" />
        </mxCell>
        <mxCell id="dCPYGXt_jROoWqE-Jf7P-34" style="edgeStyle=orthogonalEdgeStyle;rounded=0;orthogonalLoop=1;jettySize=auto;html=1;" edge="1" parent="WIyWlLk6GJQsqaUBKTNV-1" source="dCPYGXt_jROoWqE-Jf7P-22" target="dCPYGXt_jROoWqE-Jf7P-32">
          <mxGeometry relative="1" as="geometry" />
        </mxCell>
        <mxCell id="dCPYGXt_jROoWqE-Jf7P-22" value="" style="ellipse;whiteSpace=wrap;html=1;aspect=fixed;" vertex="1" parent="WIyWlLk6GJQsqaUBKTNV-1">
          <mxGeometry x="630" y="590" width="30" height="30" as="geometry" />
        </mxCell>
        <mxCell id="dCPYGXt_jROoWqE-Jf7P-26" style="edgeStyle=orthogonalEdgeStyle;rounded=0;orthogonalLoop=1;jettySize=auto;html=1;entryX=0.5;entryY=0;entryDx=0;entryDy=0;" edge="1" parent="WIyWlLk6GJQsqaUBKTNV-1" source="dCPYGXt_jROoWqE-Jf7P-24" target="dCPYGXt_jROoWqE-Jf7P-22">
          <mxGeometry relative="1" as="geometry" />
        </mxCell>
        <mxCell id="dCPYGXt_jROoWqE-Jf7P-24" value="&lt;span style=&quot;color: rgb(0, 0, 0); font-family: Helvetica; font-size: 12px; font-style: normal; font-variant-ligatures: normal; font-variant-caps: normal; font-weight: 400; letter-spacing: normal; orphans: 2; text-align: center; text-indent: 0px; text-transform: none; widows: 2; word-spacing: 0px; -webkit-text-stroke-width: 0px; background-color: rgb(248, 249, 250); text-decoration-thickness: initial; text-decoration-style: initial; text-decoration-color: initial; float: none; display: inline !important;&quot;&gt;primo = true;&lt;br&gt;&lt;/span&gt;" style="rounded=0;whiteSpace=wrap;html=1;" vertex="1" parent="WIyWlLk6GJQsqaUBKTNV-1">
          <mxGeometry x="585" y="485" width="120" height="70" as="geometry" />
        </mxCell>
        <mxCell id="dCPYGXt_jROoWqE-Jf7P-37" value="V" style="edgeStyle=orthogonalEdgeStyle;rounded=0;orthogonalLoop=1;jettySize=auto;html=1;" edge="1" parent="WIyWlLk6GJQsqaUBKTNV-1" source="dCPYGXt_jROoWqE-Jf7P-29" target="dCPYGXt_jROoWqE-Jf7P-36">
          <mxGeometry relative="1" as="geometry" />
        </mxCell>
        <mxCell id="dCPYGXt_jROoWqE-Jf7P-73" value="F" style="edgeStyle=orthogonalEdgeStyle;rounded=0;orthogonalLoop=1;jettySize=auto;html=1;" edge="1" parent="WIyWlLk6GJQsqaUBKTNV-1" source="dCPYGXt_jROoWqE-Jf7P-29" target="dCPYGXt_jROoWqE-Jf7P-72">
          <mxGeometry relative="1" as="geometry" />
        </mxCell>
        <mxCell id="dCPYGXt_jROoWqE-Jf7P-29" value="x &amp;gt; 1" style="rhombus;whiteSpace=wrap;html=1;" vertex="1" parent="WIyWlLk6GJQsqaUBKTNV-1">
          <mxGeometry x="605" y="840" width="80" height="80" as="geometry" />
        </mxCell>
        <mxCell id="dCPYGXt_jROoWqE-Jf7P-31" style="edgeStyle=orthogonalEdgeStyle;rounded=0;orthogonalLoop=1;jettySize=auto;html=1;" edge="1" parent="WIyWlLk6GJQsqaUBKTNV-1" source="dCPYGXt_jROoWqE-Jf7P-30" target="dCPYGXt_jROoWqE-Jf7P-29">
          <mxGeometry relative="1" as="geometry" />
        </mxCell>
        <mxCell id="dCPYGXt_jROoWqE-Jf7P-30" value="" style="ellipse;whiteSpace=wrap;html=1;aspect=fixed;" vertex="1" parent="WIyWlLk6GJQsqaUBKTNV-1">
          <mxGeometry x="630" y="770" width="30" height="30" as="geometry" />
        </mxCell>
        <mxCell id="dCPYGXt_jROoWqE-Jf7P-33" style="edgeStyle=orthogonalEdgeStyle;rounded=0;orthogonalLoop=1;jettySize=auto;html=1;entryX=0.5;entryY=0;entryDx=0;entryDy=0;" edge="1" parent="WIyWlLk6GJQsqaUBKTNV-1" source="dCPYGXt_jROoWqE-Jf7P-32" target="dCPYGXt_jROoWqE-Jf7P-30">
          <mxGeometry relative="1" as="geometry" />
        </mxCell>
        <mxCell id="dCPYGXt_jROoWqE-Jf7P-32" value="x = n - 1;" style="rounded=0;whiteSpace=wrap;html=1;" vertex="1" parent="WIyWlLk6GJQsqaUBKTNV-1">
          <mxGeometry x="585" y="660" width="120" height="60" as="geometry" />
        </mxCell>
        <mxCell id="dCPYGXt_jROoWqE-Jf7P-38" value="V" style="edgeStyle=orthogonalEdgeStyle;rounded=0;orthogonalLoop=1;jettySize=auto;html=1;" edge="1" parent="WIyWlLk6GJQsqaUBKTNV-1" source="dCPYGXt_jROoWqE-Jf7P-36">
          <mxGeometry relative="1" as="geometry">
            <mxPoint x="787" y="1120" as="targetPoint" />
          </mxGeometry>
        </mxCell>
        <mxCell id="dCPYGXt_jROoWqE-Jf7P-50" value="F" style="edgeStyle=orthogonalEdgeStyle;rounded=0;orthogonalLoop=1;jettySize=auto;html=1;" edge="1" parent="WIyWlLk6GJQsqaUBKTNV-1" source="dCPYGXt_jROoWqE-Jf7P-36" target="dCPYGXt_jROoWqE-Jf7P-49">
          <mxGeometry relative="1" as="geometry">
            <Array as="points">
              <mxPoint x="840" y="1010" />
            </Array>
          </mxGeometry>
        </mxCell>
        <mxCell id="dCPYGXt_jROoWqE-Jf7P-36" value="n % x == 0;" style="rhombus;whiteSpace=wrap;html=1;" vertex="1" parent="WIyWlLk6GJQsqaUBKTNV-1">
          <mxGeometry x="747" y="970" width="80" height="80" as="geometry" />
        </mxCell>
        <mxCell id="dCPYGXt_jROoWqE-Jf7P-54" style="edgeStyle=orthogonalEdgeStyle;rounded=0;orthogonalLoop=1;jettySize=auto;html=1;entryX=0.5;entryY=0;entryDx=0;entryDy=0;" edge="1" parent="WIyWlLk6GJQsqaUBKTNV-1" source="dCPYGXt_jROoWqE-Jf7P-39" target="dCPYGXt_jROoWqE-Jf7P-53">
          <mxGeometry relative="1" as="geometry">
            <Array as="points">
              <mxPoint x="780" y="1240" />
              <mxPoint x="645" y="1240" />
            </Array>
          </mxGeometry>
        </mxCell>
        <mxCell id="dCPYGXt_jROoWqE-Jf7P-39" value="&lt;span style=&quot;color: rgb(0, 0, 0); font-family: Helvetica; font-size: 12px; font-style: normal; font-variant-ligatures: normal; font-variant-caps: normal; font-weight: 400; letter-spacing: normal; orphans: 2; text-align: center; text-indent: 0px; text-transform: none; widows: 2; word-spacing: 0px; -webkit-text-stroke-width: 0px; background-color: rgb(248, 249, 250); text-decoration-thickness: initial; text-decoration-style: initial; text-decoration-color: initial; float: none; display: inline !important;&quot;&gt;primo = false;&lt;br&gt;&lt;/span&gt;" style="rounded=0;whiteSpace=wrap;html=1;" vertex="1" parent="WIyWlLk6GJQsqaUBKTNV-1">
          <mxGeometry x="727" y="1120" width="120" height="70" as="geometry" />
        </mxCell>
        <mxCell id="dCPYGXt_jROoWqE-Jf7P-60" value="V" style="edgeStyle=orthogonalEdgeStyle;rounded=0;orthogonalLoop=1;jettySize=auto;html=1;" edge="1" parent="WIyWlLk6GJQsqaUBKTNV-1" source="dCPYGXt_jROoWqE-Jf7P-44" target="dCPYGXt_jROoWqE-Jf7P-59">
          <mxGeometry relative="1" as="geometry" />
        </mxCell>
        <mxCell id="dCPYGXt_jROoWqE-Jf7P-69" value="F" style="edgeStyle=orthogonalEdgeStyle;rounded=0;orthogonalLoop=1;jettySize=auto;html=1;entryX=1;entryY=1;entryDx=0;entryDy=0;" edge="1" parent="WIyWlLk6GJQsqaUBKTNV-1" source="dCPYGXt_jROoWqE-Jf7P-44" target="dCPYGXt_jROoWqE-Jf7P-68">
          <mxGeometry relative="1" as="geometry">
            <Array as="points">
              <mxPoint x="645" y="1490" />
              <mxPoint x="1120" y="1490" />
              <mxPoint x="1120" y="1290" />
              <mxPoint x="1123" y="1290" />
            </Array>
          </mxGeometry>
        </mxCell>
        <mxCell id="dCPYGXt_jROoWqE-Jf7P-44" value="primo" style="rhombus;whiteSpace=wrap;html=1;" vertex="1" parent="WIyWlLk6GJQsqaUBKTNV-1">
          <mxGeometry x="605" y="1360" width="80" height="80" as="geometry" />
        </mxCell>
        <mxCell id="dCPYGXt_jROoWqE-Jf7P-51" style="edgeStyle=orthogonalEdgeStyle;rounded=0;orthogonalLoop=1;jettySize=auto;html=1;entryX=1;entryY=0.5;entryDx=0;entryDy=0;" edge="1" parent="WIyWlLk6GJQsqaUBKTNV-1" source="dCPYGXt_jROoWqE-Jf7P-49" target="dCPYGXt_jROoWqE-Jf7P-30">
          <mxGeometry relative="1" as="geometry" />
        </mxCell>
        <mxCell id="dCPYGXt_jROoWqE-Jf7P-49" value="x--" style="rounded=0;whiteSpace=wrap;html=1;" vertex="1" parent="WIyWlLk6GJQsqaUBKTNV-1">
          <mxGeometry x="780" y="755" width="120" height="60" as="geometry" />
        </mxCell>
        <mxCell id="dCPYGXt_jROoWqE-Jf7P-55" style="edgeStyle=orthogonalEdgeStyle;rounded=0;orthogonalLoop=1;jettySize=auto;html=1;entryX=0.5;entryY=0;entryDx=0;entryDy=0;" edge="1" parent="WIyWlLk6GJQsqaUBKTNV-1" source="dCPYGXt_jROoWqE-Jf7P-53" target="dCPYGXt_jROoWqE-Jf7P-44">
          <mxGeometry relative="1" as="geometry" />
        </mxCell>
        <mxCell id="dCPYGXt_jROoWqE-Jf7P-53" value="" style="ellipse;whiteSpace=wrap;html=1;aspect=fixed;" vertex="1" parent="WIyWlLk6GJQsqaUBKTNV-1">
          <mxGeometry x="620" y="1270" width="50" height="50" as="geometry" />
        </mxCell>
        <mxCell id="dCPYGXt_jROoWqE-Jf7P-58" style="edgeStyle=orthogonalEdgeStyle;rounded=0;orthogonalLoop=1;jettySize=auto;html=1;entryX=1;entryY=0.5;entryDx=0;entryDy=0;startArrow=none;" edge="1" parent="WIyWlLk6GJQsqaUBKTNV-1" source="dCPYGXt_jROoWqE-Jf7P-78" target="dCPYGXt_jROoWqE-Jf7P-22">
          <mxGeometry relative="1" as="geometry" />
        </mxCell>
        <mxCell id="dCPYGXt_jROoWqE-Jf7P-56" value="n++" style="rounded=0;whiteSpace=wrap;html=1;" vertex="1" parent="WIyWlLk6GJQsqaUBKTNV-1">
          <mxGeometry x="860" y="575" width="120" height="60" as="geometry" />
        </mxCell>
        <mxCell id="dCPYGXt_jROoWqE-Jf7P-70" style="edgeStyle=orthogonalEdgeStyle;rounded=0;orthogonalLoop=1;jettySize=auto;html=1;entryX=0;entryY=1;entryDx=0;entryDy=0;" edge="1" parent="WIyWlLk6GJQsqaUBKTNV-1" source="dCPYGXt_jROoWqE-Jf7P-59" target="dCPYGXt_jROoWqE-Jf7P-68">
          <mxGeometry relative="1" as="geometry" />
        </mxCell>
        <mxCell id="dCPYGXt_jROoWqE-Jf7P-59" value="n" style="shape=document;whiteSpace=wrap;html=1;boundedLbl=1;" vertex="1" parent="WIyWlLk6GJQsqaUBKTNV-1">
          <mxGeometry x="810" y="1360" width="120" height="80" as="geometry" />
        </mxCell>
        <mxCell id="dCPYGXt_jROoWqE-Jf7P-64" style="edgeStyle=orthogonalEdgeStyle;rounded=0;orthogonalLoop=1;jettySize=auto;html=1;entryX=0.5;entryY=0;entryDx=0;entryDy=0;" edge="1" parent="WIyWlLk6GJQsqaUBKTNV-1" source="dCPYGXt_jROoWqE-Jf7P-63" target="dCPYGXt_jROoWqE-Jf7P-1">
          <mxGeometry relative="1" as="geometry" />
        </mxCell>
        <mxCell id="dCPYGXt_jROoWqE-Jf7P-63" value="" style="ellipse;whiteSpace=wrap;html=1;aspect=fixed;" vertex="1" parent="WIyWlLk6GJQsqaUBKTNV-1">
          <mxGeometry x="380" y="1460" width="80" height="80" as="geometry" />
        </mxCell>
        <mxCell id="dCPYGXt_jROoWqE-Jf7P-66" style="edgeStyle=orthogonalEdgeStyle;rounded=0;orthogonalLoop=1;jettySize=auto;html=1;" edge="1" parent="WIyWlLk6GJQsqaUBKTNV-1" source="dCPYGXt_jROoWqE-Jf7P-65" target="dCPYGXt_jROoWqE-Jf7P-10">
          <mxGeometry relative="1" as="geometry" />
        </mxCell>
        <mxCell id="dCPYGXt_jROoWqE-Jf7P-65" value="n = 2;" style="rounded=0;whiteSpace=wrap;html=1;" vertex="1" parent="WIyWlLk6GJQsqaUBKTNV-1">
          <mxGeometry x="340" y="380" width="120" height="60" as="geometry" />
        </mxCell>
        <mxCell id="dCPYGXt_jROoWqE-Jf7P-71" style="edgeStyle=orthogonalEdgeStyle;rounded=0;orthogonalLoop=1;jettySize=auto;html=1;" edge="1" parent="WIyWlLk6GJQsqaUBKTNV-1" source="dCPYGXt_jROoWqE-Jf7P-68">
          <mxGeometry relative="1" as="geometry">
            <mxPoint x="980" y="610" as="targetPoint" />
            <Array as="points">
              <mxPoint x="1100" y="610" />
              <mxPoint x="980" y="610" />
            </Array>
          </mxGeometry>
        </mxCell>
        <mxCell id="dCPYGXt_jROoWqE-Jf7P-68" value="" style="ellipse;whiteSpace=wrap;html=1;aspect=fixed;" vertex="1" parent="WIyWlLk6GJQsqaUBKTNV-1">
          <mxGeometry x="1080" y="1240" width="50" height="50" as="geometry" />
        </mxCell>
        <mxCell id="dCPYGXt_jROoWqE-Jf7P-74" value="V" style="edgeStyle=orthogonalEdgeStyle;rounded=0;orthogonalLoop=1;jettySize=auto;html=1;entryX=0;entryY=0;entryDx=0;entryDy=0;" edge="1" parent="WIyWlLk6GJQsqaUBKTNV-1" source="dCPYGXt_jROoWqE-Jf7P-72" target="dCPYGXt_jROoWqE-Jf7P-53">
          <mxGeometry relative="1" as="geometry" />
        </mxCell>
        <mxCell id="dCPYGXt_jROoWqE-Jf7P-75" value="F" style="edgeStyle=orthogonalEdgeStyle;rounded=0;orthogonalLoop=1;jettySize=auto;html=1;entryX=1;entryY=0;entryDx=0;entryDy=0;" edge="1" parent="WIyWlLk6GJQsqaUBKTNV-1" source="dCPYGXt_jROoWqE-Jf7P-72" target="dCPYGXt_jROoWqE-Jf7P-63">
          <mxGeometry relative="1" as="geometry" />
        </mxCell>
        <mxCell id="dCPYGXt_jROoWqE-Jf7P-72" value="nIn &amp;gt; n" style="rhombus;whiteSpace=wrap;html=1;" vertex="1" parent="WIyWlLk6GJQsqaUBKTNV-1">
          <mxGeometry x="520" y="970" width="80" height="80" as="geometry" />
        </mxCell>
        <mxCell id="dCPYGXt_jROoWqE-Jf7P-78" value="&lt;span style=&quot;color: rgb(0, 0, 0); font-family: Helvetica; font-size: 12px; font-style: normal; font-variant-ligatures: normal; font-variant-caps: normal; font-weight: 400; letter-spacing: normal; orphans: 2; text-align: center; text-indent: 0px; text-transform: none; widows: 2; word-spacing: 0px; -webkit-text-stroke-width: 0px; background-color: rgb(248, 249, 250); text-decoration-thickness: initial; text-decoration-style: initial; text-decoration-color: initial; float: none; display: inline !important;&quot;&gt;primo = true;&lt;br&gt;&lt;/span&gt;" style="rounded=0;whiteSpace=wrap;html=1;" vertex="1" parent="WIyWlLk6GJQsqaUBKTNV-1">
          <mxGeometry x="690" y="570" width="120" height="70" as="geometry" />
        </mxCell>
        <mxCell id="dCPYGXt_jROoWqE-Jf7P-79" value="" style="edgeStyle=orthogonalEdgeStyle;rounded=0;orthogonalLoop=1;jettySize=auto;html=1;endArrow=none;" edge="1" parent="WIyWlLk6GJQsqaUBKTNV-1" source="dCPYGXt_jROoWqE-Jf7P-56" target="dCPYGXt_jROoWqE-Jf7P-78">
          <mxGeometry relative="1" as="geometry">
            <mxPoint x="860" y="605" as="sourcePoint" />
            <mxPoint x="660" y="605" as="targetPoint" />
          </mxGeometry>
        </mxCell>
      </root>
    </mxGraphModel>
  </diagram>
</mxfile>
